<svg width="37" height="35" viewBox="0 0 37 35" fill="none" xmlns="http://www.w3.org/2000/svg">
<path d="M36.7762 5.78261C36.7762 4.26087 36.164 2.91667 34.9398 1.75C33.7155 0.583333 32.3049 0 30.708 0H6.1156C4.5187 0 3.1081 0.583333 1.8838 1.75C0.65951 2.91667 0.0473633 4.26087 0.0473633 5.78261V29.2174C0.0473633 30.7391 0.65951 32.0833 1.8838 33.25C3.1081 34.4167 4.5187 35 6.1156 35H18.4118V21.7609H13.9404V15.9783H18.4118V13.6957C18.4118 11.7174 19.0905 9.98007 20.4478 8.4837C21.8052 6.98732 23.4154 6.23913 25.2785 6.23913H30.2289V12.0217H25.2785C25.0123 12.0217 24.7595 12.1739 24.5199 12.4783C24.2804 12.7826 24.1606 13.163 24.1606 13.6196V15.9783H30.2289V21.7609H24.1606V35H30.708C32.3049 35 33.7155 34.4167 34.9398 33.25C36.164 32.0833 36.7762 30.7391 36.7762 29.2174V5.78261Z" fill="#476891"/>
</svg>
