<svg width="38" height="35" viewBox="0 0 38 35" fill="none" xmlns="http://www.w3.org/2000/svg">
<path d="M18.8322 13.3328C17.9674 13.3331 17.122 13.5778 16.4031 14.0359C15.6842 14.494 15.1239 15.1449 14.7932 15.9064C14.4625 16.6679 14.3761 17.5057 14.545 18.3139C14.7139 19.1222 15.1306 19.8646 15.7422 20.4472C16.3539 21.0298 17.1331 21.4266 17.9813 21.5872C18.8295 21.7479 19.7087 21.6653 20.5077 21.3498C21.3067 21.0344 21.9895 20.5003 22.47 19.815C22.9504 19.1297 23.2069 18.3241 23.2069 17.5C23.206 16.3948 22.7448 15.3351 21.9245 14.5537C21.1042 13.7724 19.992 13.3332 18.8322 13.3328ZM29.0564 10.1297C28.8338 9.59206 28.4976 9.10377 28.0687 8.69508C27.6399 8.2864 27.1275 7.96605 26.5633 7.75391C24.8416 7.10625 20.7424 7.25156 18.8322 7.25156C16.922 7.25156 12.8269 7.10078 11.1003 7.75391C10.5361 7.96605 10.0237 8.2864 9.59481 8.69508C9.16594 9.10377 8.82977 9.59206 8.60714 10.1297C7.92832 11.7703 8.07999 15.6805 8.07999 17.4992C8.07999 19.318 7.92832 23.2234 8.61042 24.8695C8.83305 25.4072 9.16922 25.8955 9.59809 26.3041C10.027 26.7128 10.5394 27.0332 11.1036 27.2453C12.8252 27.893 16.9244 27.7477 18.8355 27.7477C20.7465 27.7477 24.84 27.8984 26.5666 27.2453C27.1307 27.0332 27.6432 26.7128 28.072 26.3041C28.5009 25.8955 28.8371 25.4072 29.0597 24.8695C29.7443 23.2289 29.5868 19.3188 29.5868 17.5C29.5868 15.6812 29.7443 11.7766 29.0597 10.1305L29.0564 10.1297ZM18.8322 23.9062C17.5026 23.9062 16.2028 23.5305 15.0973 22.8266C13.9917 22.1227 13.1301 21.1222 12.6212 19.9516C12.1124 18.781 11.9793 17.4929 12.2387 16.2502C12.4981 15.0075 13.1383 13.866 14.0785 12.9701C15.0187 12.0742 16.2166 11.464 17.5207 11.2168C18.8247 10.9697 20.1764 11.0965 21.4049 11.5814C22.6333 12.0663 23.6832 12.8874 24.4219 13.9409C25.1606 14.9944 25.5549 16.233 25.5549 17.5C25.556 18.3416 25.3828 19.1751 25.0453 19.9528C24.7079 20.7305 24.2127 21.4371 23.5883 22.0322C22.9638 22.6273 22.2222 23.0991 21.4061 23.4207C20.59 23.7423 19.7153 23.9073 18.8322 23.9062ZM25.832 12.3203C25.5216 12.3205 25.2181 12.2329 24.96 12.0687C24.7018 11.9045 24.5006 11.671 24.3817 11.3978C24.2628 11.1246 24.2316 10.8239 24.292 10.5338C24.3525 10.2436 24.5019 9.97713 24.7213 9.76793C24.9407 9.55873 25.2203 9.41624 25.5247 9.35848C25.8291 9.30072 26.1447 9.33028 26.4315 9.44344C26.7182 9.55659 26.9634 9.74825 27.1358 9.99417C27.3083 10.2401 27.4003 10.5292 27.4003 10.825C27.4012 11.0214 27.3614 11.2161 27.2831 11.3978C27.2049 11.5795 27.0897 11.7447 26.9443 11.8839C26.7989 12.0231 26.6261 12.1336 26.4358 12.209C26.2455 12.2845 26.0414 12.3233 25.8353 12.3234L25.832 12.3203ZM33.2614 0H4.40301C3.35932 0 2.35838 0.395088 1.62038 1.09835C0.882377 1.80161 0.467773 2.75544 0.467773 3.75L0.467773 31.25C0.467773 32.2446 0.882377 33.1984 1.62038 33.9016C2.35838 34.6049 3.35932 35 4.40301 35H33.2614C34.3051 35 35.306 34.6049 36.044 33.9016C36.782 33.1984 37.1966 32.2446 37.1966 31.25V3.75C37.1966 2.75544 36.782 1.80161 36.044 1.09835C35.306 0.395088 34.3051 0 33.2614 0ZM31.8578 22.6562C31.752 24.6586 31.2724 26.4328 29.7385 27.8906C28.2046 29.3484 26.3444 29.8148 24.2456 29.9102C22.0804 30.0266 15.5889 30.0266 13.4237 29.9102C11.3225 29.8094 9.46716 29.3516 7.93078 27.8906C6.3944 26.4297 5.91151 24.6547 5.81149 22.6562C5.68933 20.5922 5.68933 14.4055 5.81149 12.3438C5.91725 10.3414 6.39112 8.56719 7.93078 7.10938C9.47044 5.65156 11.3307 5.19063 13.4237 5.09531C15.5889 4.97891 22.0804 4.97891 24.2456 5.09531C26.3468 5.19609 28.2079 5.65391 29.7385 7.11484C31.2692 8.57578 31.7578 10.3508 31.8578 12.3531C31.98 14.4094 31.98 20.5906 31.8578 22.6562Z" fill="#476891"/>
</svg>
