<svg width="134" height="16" viewBox="0 0 134 16" fill="none" xmlns="http://www.w3.org/2000/svg">
<path d="M9 6C9 7.10457 8.32843 8 7.5 8C6.67157 8 6 7.10457 6 6C6 4.89543 6.67157 4 7.5 4C8.32843 4 9 4.89543 9 6Z" fill="#FF6700"/>
<path d="M6 9.33333C6 9.14924 6.13895 9 6.31034 9H8.68966C8.86105 9 9 9.14924 9 9.33333V14.6667C9 14.8508 8.86105 15 8.68966 15H6.31034C6.13895 15 6 14.8508 6 14.6667V9.33333Z" fill="#FF6700"/>
<path fill-rule="evenodd" clip-rule="evenodd" d="M0 1.2686C0 0.56797 0.592664 0 1.32375 0H14.4409C15.172 0 15.7647 0.567969 15.7647 1.26859V13.8392C15.7647 14.5398 15.172 15.1078 14.4409 15.1078H1.32375C0.592664 15.1078 0 14.5398 0 13.8392V1.2686ZM7.63693 2.05978C7.77553 1.9408 7.9885 1.9408 8.1271 2.05978L14.9895 7.95095C15.2328 8.1598 15.0747 8.53916 14.7444 8.53916H13.1374V15.1077H2.62764V8.53916H1.01961C0.689313 8.53916 0.531248 8.1598 0.774528 7.95095L7.63693 2.05978Z" fill="#3F526A"/>
<path d="M24.9307 13.84C24.6803 13.84 24.4626 13.7493 24.2776 13.568C24.0925 13.3867 24 13.1733 24 12.928V3.072C24 2.82667 24.0925 2.61333 24.2776 2.432C24.4626 2.25067 24.6803 2.16 24.9307 2.16H25.5839C25.8342 2.16 26.0519 2.25067 26.237 2.432C26.422 2.61333 26.5146 2.82667 26.5146 3.072V12.928C26.5146 13.1733 26.422 13.3867 26.237 13.568C26.0519 13.7493 25.8342 13.84 25.5839 13.84H24.9307Z" fill="#FF6700"/>
<path d="M31.4713 13.84C31.2209 13.84 31.0032 13.7493 30.8181 13.568C30.644 13.3867 30.5569 13.1733 30.5569 12.928V3.072C30.5569 2.82667 30.644 2.61333 30.8181 2.432C31.0032 2.25067 31.2209 2.16 31.4713 2.16H31.8305C32.451 2.16 32.9082 2.42667 33.2021 2.96L37.2352 10.096C37.2352 10.1067 37.2406 10.112 37.2515 10.112C37.2624 10.112 37.2678 10.1067 37.2678 10.096V3.072C37.2678 2.82667 37.3604 2.61333 37.5454 2.432C37.7305 2.25067 37.9482 2.16 38.1986 2.16H38.5578C38.8081 2.16 39.0204 2.25067 39.1946 2.432C39.3796 2.61333 39.4722 2.82667 39.4722 3.072V12.928C39.4722 13.1733 39.3796 13.3867 39.1946 13.568C39.0204 13.7493 38.8081 13.84 38.5578 13.84H38.1986C37.5781 13.84 37.1209 13.5733 36.827 13.04L32.7939 5.904C32.7939 5.89333 32.7884 5.888 32.7775 5.888C32.7666 5.888 32.7612 5.89333 32.7612 5.904V12.928C32.7612 13.1733 32.6687 13.3867 32.4836 13.568C32.2986 13.7493 32.0808 13.84 31.8305 13.84H31.4713Z" fill="#FF6700"/>
<path d="M46.495 8.912C45.1888 8.48533 44.2417 7.968 43.6539 7.36C43.077 6.752 42.7885 6.016 42.7885 5.152C42.7885 4.18133 43.1205 3.41333 43.7845 2.848C44.4485 2.28267 45.3793 2 46.5767 2C47.589 2 48.4708 2.112 49.2219 2.336C49.4831 2.41067 49.69 2.56533 49.8424 2.8C50.0056 3.024 50.0873 3.27467 50.0873 3.552V3.696C50.0873 3.89867 49.9948 4.05867 49.8097 4.176C49.6246 4.28267 49.4341 4.29867 49.2382 4.224C48.4218 3.91467 47.589 3.76 46.74 3.76C46.1957 3.76 45.782 3.88267 45.499 4.128C45.216 4.37333 45.0745 4.71467 45.0745 5.152C45.0745 5.92 45.5861 6.46933 46.6093 6.8C48.0789 7.25867 49.0967 7.78133 49.6627 8.368C50.2397 8.95467 50.5281 9.712 50.5281 10.64C50.5281 12.88 49.1185 14 46.2991 14C45.4174 14 44.6173 13.8667 43.8988 13.6C43.6376 13.504 43.4307 13.3387 43.2783 13.104C43.1368 12.8693 43.0661 12.608 43.0661 12.32V12.128C43.0661 11.9253 43.1532 11.7813 43.3273 11.696C43.5015 11.6 43.6811 11.5947 43.8662 11.68C44.5846 12.032 45.3412 12.208 46.1358 12.208C47.5183 12.208 48.2095 11.696 48.2095 10.672C48.2095 10.256 48.0789 9.91467 47.8176 9.648C47.5564 9.37067 47.1155 9.12533 46.495 8.912Z" fill="#FF6700"/>
<path d="M54.0469 4.016C53.7965 4.016 53.5788 3.93067 53.3938 3.76C53.2087 3.57867 53.1162 3.36533 53.1162 3.12V3.072C53.1162 2.82667 53.2087 2.61333 53.3938 2.432C53.5788 2.25067 53.7965 2.16 54.0469 2.16H61.0028C61.2532 2.16 61.4709 2.25067 61.6559 2.432C61.841 2.61333 61.9335 2.82667 61.9335 3.072V3.12C61.9335 3.36533 61.841 3.57867 61.6559 3.76C61.4709 3.93067 61.2532 4.016 61.0028 4.016H58.8148C58.7277 4.016 58.6842 4.064 58.6842 4.16V12.928C58.6842 13.1733 58.5916 13.3867 58.4066 13.568C58.2215 13.7493 58.0038 13.84 57.7535 13.84H57.2963C57.0459 13.84 56.8282 13.7493 56.6431 13.568C56.4581 13.3867 56.3655 13.1733 56.3655 12.928V4.16C56.3655 4.064 56.322 4.016 56.2349 4.016H54.0469Z" fill="#FF6700"/>
<path d="M67.5519 4.144L66.115 9.168C66.1041 9.2 66.1095 9.232 66.1313 9.264C66.1531 9.296 66.1803 9.312 66.213 9.312H68.9235C68.9561 9.312 68.9833 9.296 69.0051 9.264C69.0269 9.232 69.0323 9.2 69.0214 9.168L67.5845 4.144C67.5845 4.13333 67.5791 4.128 67.5682 4.128C67.5573 4.128 67.5519 4.13333 67.5519 4.144ZM63.3228 13.84C63.0942 13.84 62.9146 13.7493 62.784 13.568C62.6534 13.3867 62.6262 13.1893 62.7024 12.976L66.0823 3.024C66.1803 2.768 66.3381 2.56 66.5559 2.4C66.7845 2.24 67.0348 2.16 67.307 2.16H67.8948C68.1778 2.16 68.4282 2.24 68.6459 2.4C68.8745 2.56 69.0323 2.768 69.1194 3.024L72.4994 12.976C72.5756 13.1893 72.5484 13.3867 72.4177 13.568C72.2871 13.7493 72.1075 13.84 71.8789 13.84H71.2911C71.0298 13.84 70.7849 13.76 70.5563 13.6C70.3386 13.4293 70.1916 13.216 70.1154 12.96L69.5929 11.152C69.5821 11.0667 69.5222 11.024 69.4133 11.024H65.7231C65.6251 11.024 65.5653 11.0667 65.5435 11.152L65.021 12.96C64.9557 13.216 64.8087 13.4293 64.5801 13.6C64.3624 13.76 64.1175 13.84 63.8453 13.84H63.3228Z" fill="#FF6700"/>
<path d="M76.1785 13.84C75.9281 13.84 75.7104 13.7493 75.5254 13.568C75.3512 13.3867 75.2641 13.1733 75.2641 12.928V3.072C75.2641 2.82667 75.3512 2.61333 75.5254 2.432C75.7104 2.25067 75.9281 2.16 76.1785 2.16H76.6194C76.8697 2.16 77.0875 2.25067 77.2725 2.432C77.4576 2.61333 77.5501 2.82667 77.5501 3.072V6.704C77.5501 6.78933 77.5936 6.832 77.6807 6.832H81.7628C81.8499 6.832 81.8934 6.78933 81.8934 6.704V3.072C81.8934 2.82667 81.986 2.61333 82.171 2.432C82.3561 2.25067 82.5738 2.16 82.8242 2.16H83.265C83.5154 2.16 83.7277 2.25067 83.9018 2.432C84.0869 2.61333 84.1794 2.82667 84.1794 3.072V12.928C84.1794 13.1733 84.0869 13.3867 83.9018 13.568C83.7277 13.7493 83.5154 13.84 83.265 13.84H82.8242C82.5738 13.84 82.3561 13.7493 82.171 13.568C81.986 13.3867 81.8934 13.1733 81.8934 12.928V8.688C81.8934 8.592 81.8499 8.544 81.7628 8.544H77.6807C77.5936 8.544 77.5501 8.592 77.5501 8.688V12.928C77.5501 13.1733 77.4576 13.3867 77.2725 13.568C77.0875 13.7493 76.8697 13.84 76.6194 13.84H76.1785Z" fill="#FF6700"/>
<path d="M95.7089 8C95.7089 5.22667 94.6748 3.84 92.6065 3.84C90.5383 3.84 89.5041 5.22667 89.5041 8C89.5041 10.7733 90.5383 12.16 92.6065 12.16C94.6748 12.16 95.7089 10.7733 95.7089 8ZM96.5743 12.416C95.6055 13.472 94.2829 14 92.6065 14C90.9301 14 89.6021 13.472 88.6224 12.416C87.6536 11.36 87.1692 9.888 87.1692 8C87.1692 6.112 87.6536 4.64 88.6224 3.584C89.6021 2.528 90.9301 2 92.6065 2C94.2829 2 95.6055 2.528 96.5743 3.584C97.554 4.64 98.0439 6.112 98.0439 8C98.0439 9.888 97.554 11.36 96.5743 12.416Z" fill="#FF6700"/>
<path d="M101.969 13.84C101.718 13.84 101.501 13.7493 101.316 13.568C101.131 13.3867 101.038 13.1733 101.038 12.928V3.072C101.038 2.82667 101.131 2.61333 101.316 2.432C101.501 2.25067 101.718 2.16 101.969 2.16H102.377C102.66 2.16 102.921 2.23467 103.161 2.384C103.4 2.53333 103.574 2.73067 103.683 2.976L106.541 9.024C106.541 9.03467 106.546 9.04 106.557 9.04C106.568 9.04 106.573 9.03467 106.573 9.024L109.431 2.976C109.54 2.73067 109.714 2.53333 109.953 2.384C110.193 2.23467 110.454 2.16 110.737 2.16H111.211C111.461 2.16 111.679 2.25067 111.864 2.432C112.049 2.61333 112.141 2.82667 112.141 3.072V12.928C112.141 13.1733 112.049 13.3867 111.864 13.568C111.679 13.7493 111.461 13.84 111.211 13.84H110.851C110.601 13.84 110.383 13.7493 110.198 13.568C110.013 13.3867 109.921 13.1733 109.921 12.928V5.968C109.921 5.95733 109.915 5.952 109.904 5.952C109.894 5.952 109.888 5.95733 109.888 5.968L107.929 10.08C107.809 10.3253 107.624 10.528 107.374 10.688C107.134 10.8373 106.878 10.912 106.606 10.912H106.508C106.236 10.912 105.975 10.8373 105.724 10.688C105.485 10.528 105.305 10.3253 105.186 10.08L103.226 5.968C103.226 5.95733 103.221 5.952 103.21 5.952C103.199 5.952 103.193 5.95733 103.193 5.968V12.928C103.193 13.1733 103.101 13.3867 102.916 13.568C102.731 13.7493 102.513 13.84 102.263 13.84H101.969Z" fill="#FF6700"/>
<path d="M116.793 13.84C116.543 13.84 116.325 13.7493 116.14 13.568C115.955 13.3867 115.862 13.1733 115.862 12.928V3.072C115.862 2.82667 115.955 2.61333 116.14 2.432C116.325 2.25067 116.543 2.16 116.793 2.16H122.345C122.595 2.16 122.813 2.25067 122.998 2.432C123.183 2.61333 123.276 2.82667 123.276 3.072C123.276 3.31733 123.183 3.53067 122.998 3.712C122.813 3.88267 122.595 3.968 122.345 3.968H118.295C118.197 3.968 118.148 4.016 118.148 4.112V6.688C118.148 6.784 118.197 6.832 118.295 6.832H122.067C122.318 6.832 122.524 6.91733 122.688 7.088C122.862 7.25867 122.949 7.46133 122.949 7.696C122.949 7.93067 122.862 8.13333 122.688 8.304C122.524 8.464 122.318 8.544 122.067 8.544H118.295C118.197 8.544 118.148 8.592 118.148 8.688V11.888C118.148 11.984 118.197 12.032 118.295 12.032H122.345C122.595 12.032 122.813 12.1227 122.998 12.304C123.183 12.4747 123.276 12.6827 123.276 12.928C123.276 13.1733 123.183 13.3867 122.998 13.568C122.813 13.7493 122.595 13.84 122.345 13.84H116.793Z" fill="#FF6700"/>
<path d="M129.967 8.912C128.661 8.48533 127.714 7.968 127.126 7.36C126.549 6.752 126.26 6.016 126.26 5.152C126.26 4.18133 126.592 3.41333 127.256 2.848C127.92 2.28267 128.851 2 130.049 2C131.061 2 131.943 2.112 132.694 2.336C132.955 2.41067 133.162 2.56533 133.314 2.8C133.477 3.024 133.559 3.27467 133.559 3.552V3.696C133.559 3.89867 133.467 4.05867 133.282 4.176C133.096 4.28267 132.906 4.29867 132.71 4.224C131.894 3.91467 131.061 3.76 130.212 3.76C129.668 3.76 129.254 3.88267 128.971 4.128C128.688 4.37333 128.546 4.71467 128.546 5.152C128.546 5.92 129.058 6.46933 130.081 6.8C131.551 7.25867 132.569 7.78133 133.135 8.368C133.712 8.95467 134 9.712 134 10.64C134 12.88 132.59 14 129.771 14C128.889 14 128.089 13.8667 127.371 13.6C127.109 13.504 126.903 13.3387 126.75 13.104C126.609 12.8693 126.538 12.608 126.538 12.32V12.128C126.538 11.9253 126.625 11.7813 126.799 11.696C126.973 11.6 127.153 11.5947 127.338 11.68C128.056 12.032 128.813 12.208 129.608 12.208C130.99 12.208 131.681 11.696 131.681 10.672C131.681 10.256 131.551 9.91467 131.289 9.648C131.028 9.37067 130.587 9.12533 129.967 8.912Z" fill="#FF6700"/>
</svg>
