<svg width="37" height="35" viewBox="0 0 37 35" fill="none" xmlns="http://www.w3.org/2000/svg">
<path fill-rule="evenodd" clip-rule="evenodd" d="M6 0C2.68629 0 0 2.68629 0 6V29C0 32.3137 2.68629 35 6 35H31C34.3137 35 37 32.3137 37 29V6C37 2.68629 34.3137 0 31 0H6ZM26.9925 21.1137C28.7319 22.2304 29.6782 23.0744 29.9461 23.3599C29.9705 23.386 29.9874 23.4181 29.9952 23.4529C30.003 23.4878 30.0013 23.5241 29.9903 23.558C29.6473 24.5558 29.2098 25.5185 28.6837 26.4331C28.1707 27.3159 27.5807 28.1518 26.9206 28.9308C26.8974 28.9579 26.8672 28.9783 26.8333 28.9897C26.7994 29.0011 26.7631 29.0031 26.7281 28.9955C26.2291 28.8892 24.1406 28.3758 21.249 26.7843C18.2949 25.1604 16.7352 23.9672 14.3504 21.5907C11.9656 19.2141 10.8402 17.7022 9.21634 14.7511C7.62478 11.8596 7.11188 9.77215 7.00458 9.2721C6.99692 9.23723 6.99889 9.20094 7.01029 9.16712C7.02169 9.13329 7.04208 9.1032 7.06927 9.08008C7.84833 8.41989 8.68415 7.82976 9.56699 7.31655C10.4815 6.79036 11.4443 6.35283 12.4421 6.00994C12.4763 5.99873 12.5129 5.99697 12.5481 6.00483C12.5832 6.01269 12.6156 6.02988 12.6418 6.0546C12.9272 6.3226 13.7703 7.2688 14.8885 9.00769C16.0149 10.7599 16.7172 12.0517 16.881 12.4228C16.8955 12.4555 16.9008 12.4915 16.8964 12.527C16.8919 12.5624 16.8779 12.596 16.8558 12.6241C16.3902 13.2207 15.5343 14.2259 15.4881 14.2798C15.1888 14.6279 15.1888 14.6279 15.2827 14.9134C15.447 15.4139 16.3162 17.0091 17.6727 18.3686C19.0291 19.7281 20.5857 20.5546 21.0868 20.7189C21.2051 20.7575 21.2743 20.7801 21.3396 20.7719C21.4317 20.7605 21.5162 20.688 21.7198 20.5136C21.7737 20.4674 22.779 19.612 23.3761 19.1464C23.4042 19.1243 23.4378 19.1103 23.4732 19.1058C23.5087 19.1014 23.5447 19.1067 23.5773 19.1212C23.948 19.285 25.2403 19.9873 26.9925 21.1137Z" fill="#476890"/>
</svg>
