<svg width="37" height="35" viewBox="0 0 37 35" fill="none" xmlns="http://www.w3.org/2000/svg">
<path fill-rule="evenodd" clip-rule="evenodd" d="M6 0C2.68629 0 0 2.68629 0 6V29C0 32.3137 2.68629 35 6 35H31C34.3137 35 37 32.3137 37 29V6C37 2.68629 34.3137 0 31 0H6ZM9.2 9H26.8C28.01 9 29 10.0125 29 11.25V24.75C29 25.9875 28.01 27 26.8 27H9.2C7.99 27 7 25.9875 7 24.75L7.011 11.25C7.011 10.0125 7.99 9 9.2 9ZM18.583 18.7537L26.36 13.7812C26.4703 13.7179 26.5669 13.6324 26.6439 13.5298C26.721 13.4272 26.7768 13.3096 26.8082 13.1843C26.8395 13.059 26.8456 12.9284 26.8262 12.8006C26.8068 12.6728 26.7622 12.5503 26.6952 12.4406C26.6282 12.3309 26.54 12.2362 26.4362 12.1624C26.3324 12.0885 26.2149 12.037 26.0911 12.0108C25.9672 11.9847 25.8394 11.9846 25.7155 12.0104C25.5915 12.0363 25.474 12.0876 25.37 12.1613L18 16.875L10.63 12.1613C10.526 12.0876 10.4085 12.0363 10.2846 12.0104C10.1606 11.9846 10.0328 11.9847 9.90895 12.0108C9.78506 12.037 9.66764 12.0885 9.5638 12.1624C9.45996 12.2362 9.37185 12.3309 9.30481 12.4406C9.23777 12.5503 9.19319 12.6728 9.17377 12.8006C9.15435 12.9284 9.1605 13.059 9.19183 13.1843C9.22317 13.3096 9.27904 13.4272 9.35608 13.5298C9.43311 13.6324 9.5297 13.7179 9.64 13.7812L17.417 18.7537C17.769 18.9788 18.231 18.9788 18.583 18.7537Z" fill="#476890"/>
</svg>
